<?xml version="1.0" encoding="UTF-8"?>
<svg version="1.1" xmlns="http://www.w3.org/2000/svg" width="512" height="512">
<path d="M0 0 C0.79744629 0.37560059 1.59489258 0.75120117 2.41650391 1.13818359 C21.45769536 10.12489638 39.64429231 20.84058351 56.32666016 33.71191406 C58.02346604 35.01806344 59.7343855 36.30357423 61.44921875 37.5859375 C67.4591504 42.10613196 73.20737612 46.82699199 78.7421875 51.92578125 C80.77163463 53.79020413 82.84034156 55.58774554 84.9375 57.375 C103.14467893 73.39435092 103.14467893 73.39435092 104.3984375 84.54296875 C104.79587032 93.97726688 103.51732153 100.92403316 97.16796875 108.05859375 C90.87558116 114.0282948 85.17122784 116.11717524 76.5625 116.4375 C65.04750103 116.09258068 59.05831628 110.74182652 51 103 C33.75124445 86.84557637 14.65894385 72.51990882 -6 61 C-6.82177734 60.54125488 -7.64355469 60.08250977 -8.49023438 59.60986328 C-52.43241963 35.34244743 -100.98448686 22.78457522 -151.125 22.75 C-152.00850128 22.74932526 -152.89200256 22.74865051 -153.80227661 22.74795532 C-168.70860864 22.76595753 -183.27416824 23.53164717 -198 26 C-199.03044434 26.17160645 -200.06088867 26.34321289 -201.12255859 26.52001953 C-257.29857476 36.20136284 -309.19981135 61.25188861 -351 100 C-353.04314902 101.81934118 -355.09950829 103.62030795 -357.171875 105.40625 C-358.38930907 106.46760278 -359.58765937 107.55125569 -360.765625 108.65625 C-367.79530115 115.11595241 -374.22215833 116.60841227 -383.75 116.34375 C-391.36986709 115.53780252 -397.41107662 112.70224848 -402.52734375 106.95703125 C-407.79073639 99.96244315 -408.4699781 93.60766459 -408.62890625 84.94140625 C-407.1464543 75.65076018 -402.0366286 69.2620513 -395.375 62.9375 C-394.66641846 62.247771 -393.95783691 61.55804199 -393.2277832 60.84741211 C-387.73157241 55.55432621 -382.01477638 50.69558463 -376 46 C-374.31128993 44.58477599 -372.62383441 43.16805393 -370.9375 41.75 C-298.29540298 -17.413181 -202.00032143 -42.33058312 0 0 Z " fill="#000000" transform="translate(408,96)"/>
<path d="M0 0 C1.00160156 0.54213135 1.00160156 0.54213135 2.0234375 1.09521484 C17.78743212 9.73938642 32.48956664 20.18048147 45.48828125 32.6171875 C47.70976957 34.72466476 49.99397122 36.64159498 52.375 38.5625 C57.87980668 43.30881557 62.6089381 50.42906333 63.23828125 57.78515625 C63.45159931 67.20483263 62.32052201 74.73131072 55.8125 81.875 C48.63383154 88.35107538 40.2530969 90.36580837 30.75390625 89.88671875 C20.94954631 88.43616282 13.76954619 80.80814922 6.875 74.25 C-14.60392668 53.92155747 -42.46096887 40.16377397 -71 33 C-71.7312207 32.81453613 -72.46244141 32.62907227 -73.21582031 32.43798828 C-122.97561649 20.13237994 -173.89358876 29.5353479 -217.6875 55.375 C-227.56752369 61.35603023 -236.34849973 68.3465205 -244.75 76.25 C-253.59907968 84.51618275 -260.38932838 89.51437165 -273 90 C-281.16161709 89.48755544 -287.81220206 85.62131896 -293.3125 79.6875 C-298.47161522 73.12263132 -299.68856073 66.68928861 -299.4765625 58.3828125 C-298.17006825 49.10884509 -292.96448727 41.94821016 -286 36 C-285.44054687 35.48695313 -284.88109375 34.97390625 -284.3046875 34.4453125 C-273.01400209 24.22993046 -260.88894317 15.08749681 -248 7 C-247.01459229 6.37762451 -247.01459229 6.37762451 -246.00927734 5.74267578 C-228.76487485 -5.05219567 -210.35708002 -12.84003108 -191 -19 C-190.25572754 -19.23702637 -189.51145508 -19.47405273 -188.74462891 -19.71826172 C-126.51731129 -39.12188335 -56.98977765 -30.95084951 0 0 Z " fill="#000000" transform="translate(374,198)"/>
<path d="M0 0 C38.40924615 -0.64078232 74.66458033 12.90301573 102.48046875 39.62109375 C108.84623328 46.23740586 111.5118533 52.01698797 111.91796875 61.18359375 C111.57610461 69.79636451 108.24463757 76.15522274 102.390625 82.39453125 C96.2039407 87.80941137 88.48812027 89.3836305 80.41796875 89.12109375 C71.37094419 87.83253703 65.60860297 82.849821 58.97265625 76.9453125 C40.92081621 61.34528954 18.94742089 55.81139296 -4.58203125 57.12109375 C-24.46059131 59.2856922 -40.97115454 68.21235946 -55.51953125 81.55859375 C-62.03174914 87.48530948 -68.87145919 89.32449997 -77.58203125 89.12109375 C-86.19420561 87.62386229 -92.76958883 83.83690153 -98.2578125 77.0234375 C-102.92869726 70.31334641 -103.51133208 63.13373202 -102.58203125 55.12109375 C-98.21816461 38.41639994 -80.71304046 27.00399515 -66.5 18.66015625 C-45.96052202 7.13062385 -23.5404528 0.79580593 0 0 Z " fill="#000000" transform="translate(251.58203125,272.87890625)"/>
<path d="M0 0 C8.2569668 5.95007999 13.75308549 13.87670843 15.98046875 23.81640625 C17.72488171 34.62553655 15.79313945 45.38201231 9.29296875 54.40234375 C1.83357781 63.03619198 -6.80814748 67.41319978 -18.04296875 68.83984375 C-28.0225361 69.3565851 -38.0257846 66.09478111 -45.58203125 59.56640625 C-53.42659353 51.56862986 -57.43899482 42.8639536 -58.01953125 31.65234375 C-57.57446656 19.98794006 -53.00077094 10.83297789 -44.80859375 2.78515625 C-32.11918935 -7.97674368 -14.0311536 -8.0026398 0 0 Z " fill="#000000" transform="translate(276.58203125,381.47265625)"/>
</svg>
