<?xml version="1.0" encoding="UTF-8"?>
<svg version="1.1" xmlns="http://www.w3.org/2000/svg" width="256" height="256">
<path d="M0 0 C6.6996273 6.40086014 6.6996273 6.40086014 7.390625 11.32421875 C6.890625 14.76171875 6.890625 14.76171875 5.265625 17.13671875 C2.32784438 19.14677918 0.4509754 19.68905854 -3.109375 19.76171875 C-7.03474985 17.74369851 -10.17050811 15.09073006 -13.484375 12.19921875 C-43.17091737 -12.92800448 -82.03291152 -25.16021986 -120.80419922 -22.02001953 C-152.87116659 -18.69104591 -182.99324938 -6.02828039 -206.734375 15.94921875 C-209.74950356 18.66614779 -211.9065407 19.85511507 -216.109375 19.76171875 C-219.95561966 18.71274293 -220.84629141 18.15634414 -223.109375 14.76171875 C-223.70801267 11.3694386 -223.80585127 8.95965794 -222.03515625 5.9140625 C-200.32881799 -20.71310811 -160.21698225 -35.66141491 -127.046875 -39.55078125 C-81.13223544 -44.200365 -34.74957687 -30.72836043 0 0 Z " fill="hsl(225, 97%, 65%)" transform="translate(236.109375,90.23828125)"/>
<path d="M0 0 C3.10969093 2.90937341 4.43180703 4.49514531 4.984375 8.7578125 C4.546875 12.3828125 4.546875 12.3828125 2.484375 15.3203125 C-0.453125 17.3828125 -0.453125 17.3828125 -3.765625 18.1328125 C-8.25082475 17.22056848 -9.93741989 15.58218121 -13.1953125 12.50390625 C-31.94983173 -5.1149587 -56.62177885 -13.23581083 -82.09765625 -12.83203125 C-105.76997101 -11.97460883 -128.14362486 -2.21382843 -145.21484375 14.0625 C-147.85639188 16.51685181 -149.41060985 17.3753537 -153.015625 18.0078125 C-157.43061301 17.20508741 -158.88453402 16.04110874 -161.453125 12.3828125 C-162.38814777 7.79270072 -161.8489317 5.98217694 -159.265625 2.0703125 C-116.15220231 -42.85206499 -44.89760311 -38.9620844 0 0 Z " fill="hsl(225, 97%, 65%)" transform="translate(206.453125,128.6171875)"/>
<path d="M0 0 C5.04356718 3.81824914 9.05046488 7.23638305 10.1171875 13.63671875 C9.13606214 18.7385706 9.13606214 18.7385706 6.4921875 20.88671875 C3.28736112 21.86446239 1.69534635 22.31879953 -1.5078125 21.88671875 C-4.49681174 20.26865814 -6.93275623 18.08900497 -9.5078125 15.88671875 C-20.26147024 7.63485005 -32.97473233 3.86289563 -46.5078125 4.88671875 C-57.47123168 6.59512886 -66.20158936 9.98612954 -74.6953125 17.13671875 C-78.59303999 20.36853355 -81.24060706 22.19655436 -86.5078125 21.88671875 C-89.45536982 20.54109476 -91.05058522 19.80117331 -92.5078125 16.88671875 C-93.06021923 13.43417666 -93.14548491 10.96716038 -91.33203125 7.89453125 C-69.16614658 -19.29703133 -27.02984611 -18.0590711 0 0 Z " fill="hsl(225, 97%, 65%)" transform="translate(169.5078125,159.11328125)"/>
<path d="M0 0 C3.27593689 2.5452745 5.32676302 4.93301158 6.15625 8.98828125 C6.29617873 13.70213031 5.8558839 17.62940702 2.90625 21.42578125 C-0.4146601 24.52026566 -2.37273805 25.91493025 -6.94921875 26.05078125 C-12.83256183 25.73542618 -15.83183236 24.29375384 -19.84375 19.98828125 C-22.28732377 16.16355708 -22.0671983 12.56923986 -21.44921875 8.20703125 C-20.21983073 3.70191903 -17.51674716 1.05714055 -13.59375 -1.44921875 C-8.91871806 -2.40547528 -4.26301752 -2.33924055 0 0 Z " fill="hsl(225, 97%, 65%)" transform="translate(135.84375,188.01171875)"/>
</svg>
